<svg xmlns="http://www.w3.org/2000/svg" xmlns:xlink="http://www.w3.org/1999/xlink" version="1.1" id="Layer_1" x="0px" y="0px" width="77.2727272727px" height="100px" viewBox="0 0 612 792" enable-background="new 0 0 612 792" xml:space="preserve">
<g>
	<path d="M342.845,321.896h-22.999v10.4c0,7.4-5.601,13-13,13c-1.4,0-40,1.4-51.599-0.2c-8.6-1.2-39.199-10.2-39.199-23.4v-27   c0-12.8,28.199-21.6,39.399-23c14-1.8,50-0.4,51.399-0.4c7.4,0,13,5.8,13,12.8v10.8h22.999V321.896z M263.446,314.696   c0-6.4-5.2-11.6-11.6-11.6s-11.6,5.2-11.6,11.6s5.2,11.6,11.6,11.6S263.446,321.096,263.446,314.696z M315.045,392.294l-11-38.399   h-28l8.8,32.2c1,3.8,3.2,6.2,6.6,6.2H315.045z M369.244,280.696v55.399l-19.199-14.2v-27.2L369.244,280.696z"/>
</g>
</svg>